<svg xmlns="http://www.w3.org/2000/svg" width="117" height="108.52"><path fill="#040000" d="M113.975 0H32.367a3.032 3.032 0 0 0-3.044 3.043v18.902H3.029A3.035 3.035 0 0 0 0 24.988v80.504a3.032 3.032 0 0 0 3.029 3.027h81.612a3.033 3.033 0 0 0 3.042-3.027V86.574h26.291a3.03 3.03 0 0 0 3.025-3.027V3.043A3.03 3.03 0 0 0 113.975 0zM78.797 98.28a2.029 2.029 0 0 1-2.051 2.041H10.949a2.034 2.034 0 0 1-2.058-2.041V53.049c0-1.143.908-2.045 2.058-2.045h18.374v32.543a3.028 3.028 0 0 0 3.044 3.027h46.43V98.28zm29.314-21.946a2.03 2.03 0 0 1-2.053 2.043H40.264a2.037 2.037 0 0 1-2.061-2.043V31.097c0-1.141.908-2.048 2.061-2.048h65.795c1.15 0 2.053.907 2.053 2.048v45.237z"/></svg>