<svg xmlns="http://www.w3.org/2000/svg" width="104.303" height="100.513"><path fill="#040000" d="M51.994 3.772c-25.83 0-46.771 20.939-46.771 46.771 0 25.831 20.941 46.771 46.771 46.771s46.771-20.939 46.771-46.771c0-25.831-20.941-46.771-46.771-46.771zm0 84.04c-20.583 0-37.271-16.686-37.271-37.268 0-20.584 16.688-37.269 37.271-37.269 20.582 0 37.271 16.686 37.271 37.269 0 20.582-16.689 37.268-37.271 37.268z"/><path fill="#040000" d="M4.981 4.981c-6.641 6.641-6.643 17.412.001 24.055L29.035 4.982C22.391-1.66 11.624-1.661 4.981 4.981zm94.341 0c6.641 6.641 6.643 17.412-.001 24.055L75.268 4.982c6.644-6.642 17.411-6.643 24.054-.001z"/><circle fill="#040000" cx="29.034" cy="92.831" r="8.14"/><circle fill="#040000" cx="73.268" cy="92.831" r="8.14"/><circle fill="#040000" cx="52.295" cy="50.544" r="5.205"/><path fill="#040000" d="M54.288 47.935a1.993 1.993 0 0 1-3.986 0V23.622a1.992 1.992 0 1 1 3.986 0v24.313z"/><path fill="#040000" d="M65.849 61.107c.778.777.778 2.04 0 2.818a1.996 1.996 0 0 1-2.819 0L51.496 52.391a1.994 1.994 0 0 1 2.819-2.818l11.534 11.534z"/></svg>