<svg xmlns="http://www.w3.org/2000/svg" width="87.338" height="86.667"><path fill="#040000" d="M64.693 35.533s3.572-2.716.853-5.433c-2.719-2.716-5.363.789-5.363.789L32.847 58.231s-6.402 8.263-11.27 3.267c-4.862-5.002 3.264-11.273 3.264-11.273l35.843-35.84s8.365-9.215 16.229-1.357c7.852 7.861-1.389 16.243-1.389 16.243L35.249 69.545S22.363 84.431 10.434 72.5s3.104-24.672 3.104-24.672l30.576-30.585s3.424-2.859.859-5.433c-2.577-2.571-5.43.859-5.43.859L4.457 47.755S-8.787 62.28 6.003 77.068c14.79 14.796 29.325 1.552 29.325 1.552L83.55 30.391S93.199 19.75 81.695 8.24 59.548 6.38 59.548 6.38L18.053 47.869s-10.627 8.644-.984 18.281c9.643 9.649 18.13-1.135 18.13-1.135l29.494-29.482z"/></svg>